<?xml version="1.0" encoding="UTF-8" standalone="no"?>
<!-- Created with Inkscape (http://www.inkscape.org/) -->

<svg
   width="210mm"
   height="297mm"
   viewBox="0 0 210 297"
   version="1.1"
   id="svg5"
   xml:space="preserve"
   inkscape:version="1.2.2 (b0a8486541, 2022-12-01)"
   sodipodi:docname="b.svg"
   xmlns:inkscape="http://www.inkscape.org/namespaces/inkscape"
   xmlns:sodipodi="http://sodipodi.sourceforge.net/DTD/sodipodi-0.dtd"
   xmlns="http://www.w3.org/2000/svg"
   xmlns:svg="http://www.w3.org/2000/svg"><sodipodi:namedview
     id="namedview7"
     pagecolor="#ffffff"
     bordercolor="#000000"
     borderopacity="0.25"
     inkscape:showpageshadow="2"
     inkscape:pageopacity="0.0"
     inkscape:pagecheckerboard="0"
     inkscape:deskcolor="#d1d1d1"
     inkscape:document-units="mm"
     showgrid="false"
     inkscape:zoom="0.42971425"
     inkscape:cx="-344.41492"
     inkscape:cy="631.81521"
     inkscape:window-width="1920"
     inkscape:window-height="1012"
     inkscape:window-x="0"
     inkscape:window-y="29"
     inkscape:window-maximized="1"
     inkscape:current-layer="layer1" /><defs
     id="defs2" /><g
     inkscape:label="Camada 1"
     inkscape:groupmode="layer"
     id="layer1"><path
       id="path306"
       style="fill:#fbd116;fill-opacity:1;stroke-width:10.5038"
       d="m 103.71005,19.722945 c -7.814848,0.209556 -19.529729,2.06554 -31.660481,5.244462 -26.9261,7.055964 -34.584751,14.2255 -32.319773,30.238932 C 41.36238,66.749318 33.089615,117.3931 21.346968,167.75404 9.6043824,218.11481 4.7207677e-7,261.23141 4.7207677e-7,263.56407 c 0,2.33253 20.08887152792323,6.05147 44.64169052792323,8.26291 24.552652,2.21142 50.779768,4.8463 58.288089,5.85534 25.34689,3.40722 75.17449,-29.83191 91.21278,-60.84688 35.7859,-69.2021 8.69384,-121.906144 -58.05833,-112.95284 l -38.71354,5.18998 10.45879,-41.199657 c 5.7526,-22.661589 7.99487,-43.669693 4.98431,-46.680113 -1.12843,-1.128361 -4.41484,-1.595655 -9.10374,-1.469865 z m 26.73657,106.915965 c 9.60155,-0.32109 16.60449,8.15598 16.60449,28.49081 0,11.7845 -7.62532,37.50212 -16.94932,57.15094 -11.00553,23.19246 -24.37596,35.72531 -38.10861,35.72531 -18.954776,0 -20.442849,-4.6398 -14.323991,-44.64152 6.644616,-43.44024 34.447061,-76.11389 52.777431,-76.72554 z" /></g></svg>
